<svg width="14" height="19" viewBox="0 0 14 19" fill="none" xmlns="http://www.w3.org/2000/svg">
<path d="M12.2486 0H1.73654C0.821277 0 0.0763493 0.702774 0 1.5916C0 1.5916 0 6.81774 0 17.27C0 18.4378 0.714649 19 1.73654 19H12.2486C13.2142 19 14 18.2205 14 17.2622V1.73782C14 0.779453 13.2145 0 12.2486 0ZM13.1244 17.2619C13.1244 17.7409 12.7318 18.1307 12.2488 18.1307H1.73677C1.25385 18.1307 0.861192 17.7409 0.861192 17.2619V1.73759C0.861192 1.25841 1.25385 0.868796 1.73677 0.868796H12.2488C12.7318 0.868796 13.1244 1.25841 13.1244 1.73759V17.2619Z" fill="#4C4D5F"/>
<path d="M11.2002 3.04004H2.80016C2.54243 3.04004 2.3335 3.2442 2.3335 3.49604C2.3335 3.74788 2.54243 3.95204 2.80016 3.95204H11.2002C11.4579 3.95204 11.6668 3.74788 11.6668 3.49604C11.6668 3.2442 11.4579 3.04004 11.2002 3.04004Z" fill="#4C4D5F"/>
<path d="M7.31127 6.83984H2.80016C2.54243 6.83984 2.3335 7.044 2.3335 7.29584C2.3335 7.54769 2.54243 7.75184 2.80016 7.75184H7.31127C7.56901 7.75184 7.77794 7.54769 7.77794 7.29584C7.77794 7.044 7.56901 6.83984 7.31127 6.83984Z" fill="#4C4D5F"/>
<path d="M11.2 15.96H7.46667C7.20893 15.96 7 16.1641 7 16.416C7 16.6678 7.20893 16.872 7.46667 16.872H11.2C11.4577 16.872 11.6667 16.6678 11.6667 16.416C11.6667 16.1641 11.4577 15.96 11.2 15.96Z" fill="#4C4D5F"/>
<path d="M8.86683 9.12012H2.80016C2.54243 9.12012 2.3335 9.32428 2.3335 9.57612C2.3335 9.82796 2.54243 10.0321 2.80016 10.0321H8.86683C9.12456 10.0321 9.3335 9.82796 9.3335 9.57612C9.3335 9.32428 9.12456 9.12012 8.86683 9.12012Z" fill="#4C4D5F"/>
<path d="M5.75572 11.3999H2.80016C2.54243 11.3999 2.3335 11.6041 2.3335 11.8559C2.3335 12.1077 2.54243 12.3119 2.80016 12.3119H5.75572C6.01345 12.3119 6.22238 12.1077 6.22238 11.8559C6.22238 11.6041 6.01345 11.3999 5.75572 11.3999Z" fill="#4C4D5F"/>
</svg>
