<svg width="14" height="19" viewBox="0 0 14 19" fill="none" xmlns="http://www.w3.org/2000/svg">
<path d="M12.2486 0H1.73654C0.821277 0 0.0763493 0.702774 0 1.5916C0 1.5916 0 6.81774 0 17.27C0 18.4378 0.714649 19 1.73654 19H12.2486C13.2142 19 14 18.2205 14 17.2622V1.73782C14 0.779453 13.2145 0 12.2486 0ZM13.2632 17.3865C13.2632 17.8731 12.8621 18.2692 12.3688 18.2692H1.63121C1.13792 18.2692 0.736842 17.8731 0.736842 17.3865V1.61348C0.736842 1.12662 1.13792 0.730769 1.63121 0.730769H12.3688C12.8621 0.730769 13.2632 1.12662 13.2632 1.61348V17.3865ZM9.34035 13.745C9.47158 13.745 9.57895 13.8488 9.57895 13.9757V14.3847C9.57895 14.5116 9.47158 14.6154 9.34035 14.6154H4.65965C4.52842 14.6154 4.42105 14.5116 4.42105 14.3847V13.9757C4.42105 13.8488 4.52842 13.745 4.65965 13.745H9.34035ZM6.74925 3.68307C6.88417 3.68174 7.0139 3.73272 7.10881 3.8244C7.20373 3.91608 7.25572 4.04062 7.25292 4.16959V4.80501H8.58217C8.76193 4.80259 8.92913 4.89289 9.01975 5.04134C9.11037 5.18979 9.11037 5.37338 9.01975 5.52183C8.92913 5.67027 8.76193 5.76057 8.58217 5.75815H6.25597C5.90171 5.75815 5.70899 5.84397 5.59654 5.94679C5.48409 6.04961 5.42519 6.19137 5.42519 6.39357C5.42519 6.52296 5.48529 6.64528 5.70039 6.78079C5.91548 6.91629 6.28101 7.029 6.75445 7.029C7.38415 7.02898 7.93071 7.16463 8.35371 7.4311C8.7767 7.69758 9.08064 8.13091 9.08064 8.61756C9.08064 9.07237 8.84775 9.4941 8.48352 9.77423C8.15665 10.0256 7.73125 10.1734 7.25292 10.2011V10.8415C7.25546 11.0134 7.16101 11.1733 7.00574 11.2599C6.85047 11.3466 6.65842 11.3466 6.50315 11.2599C6.34788 11.1733 6.25343 11.0134 6.25597 10.8415V10.2061H4.92672C4.74693 10.2086 4.57968 10.1183 4.48904 9.96983C4.39839 9.82137 4.39839 9.63774 4.48904 9.48928C4.57968 9.34081 4.74693 9.25052 4.92672 9.25299H7.08676C7.44101 9.25299 7.70197 9.15144 7.86043 9.02959C8.01889 8.90772 8.0837 8.7788 8.0837 8.61756C8.0837 8.48818 8.02359 8.36088 7.8085 8.22537C7.59342 8.08988 7.22787 7.98213 6.75445 7.98214C6.12474 7.98214 5.57817 7.84155 5.15518 7.57507C4.73219 7.30859 4.42825 6.88024 4.42825 6.39357C4.42825 5.97974 4.58397 5.56089 4.91114 5.26173C5.23831 4.96257 5.71018 4.80501 6.25597 4.80501V4.16959C6.25321 4.04235 6.30379 3.91933 6.39644 3.82795C6.4891 3.73656 6.61614 3.68441 6.74925 3.68307Z" fill="#4C4D5F"/>
</svg>
