<svg width="14" height="19" viewBox="0 0 14 19" fill="none" xmlns="http://www.w3.org/2000/svg">
<path d="M12.2486 0H1.73654C0.821277 0 0.0763493 0.702774 0 1.5916C0 1.5916 0 6.81774 0 17.27C0 18.4378 0.714649 19 1.73654 19H12.2486C13.2142 19 14 18.2205 14 17.2622V1.73782C14 0.779453 13.2145 0 12.2486 0ZM12.2488 0.868796C12.7318 0.868796 13.1244 1.25841 13.1244 1.73759V17.2619C13.1244 17.7409 12.7318 18.1307 12.2488 18.1307H1.73677C1.25385 18.1307 0.861192 17.7409 0.861192 17.2619V1.73759C0.861192 1.25841 1.25385 0.868796 1.73677 0.868796H12.2488ZM4.66667 2.28C3.378 2.28 2.33333 3.30079 2.33333 4.56C2.33333 5.81921 3.378 6.84 4.66667 6.84C5.95533 6.84 7 5.81921 7 4.56C7 3.30079 5.95533 2.28 4.66667 2.28ZM4.66667 3.1464C5.46564 3.1464 6.11333 3.77929 6.11333 4.56C6.11333 5.34071 5.46564 5.9736 4.66667 5.9736C3.86769 5.9736 3.22 5.34071 3.22 4.56C3.22 3.77929 3.86769 3.1464 4.66667 3.1464ZM11.2251 9.9888H2.75525C2.51779 9.9888 2.32351 9.88518 2.32351 9.75853V9.35027C2.32351 9.22362 2.51779 9.12 2.75525 9.12H11.2251C11.4626 9.12 11.6568 9.22362 11.6568 9.35027V9.75853C11.6568 9.88518 11.4626 9.9888 11.2251 9.9888ZM11.2251 12.5954H2.75525C2.51779 12.5954 2.32351 12.4918 2.32351 12.3651V11.9569C2.32351 11.8302 2.51779 11.7266 2.75525 11.7266H11.2251C11.4626 11.7266 11.6568 11.8302 11.6568 11.9569V12.3651C11.6568 12.4918 11.4626 12.5954 11.2251 12.5954ZM11.2251 15.3088H2.75525C2.51779 15.3088 2.32351 15.2052 2.32351 15.0785V14.6703C2.32351 14.5436 2.51779 14.44 2.75525 14.44H11.2251C11.4626 14.44 11.6568 14.5436 11.6568 14.6703V15.0785C11.6568 15.2052 11.4626 15.3088 11.2251 15.3088Z" fill="#4C4D5F"/>
</svg>
